# xmcd
#
# Track frame offsets:
#  150
#  14755
#  30129
#  45177
#  62749
#  76906
#  90922
#  105511
#  121018
#  134084
#  149142
#  162218
#  182018
#  195924
#
# Disc length: 2791 seconds
#
# Revision: 0
# Processed by: cddbd v1.5.1PL2 Copyright (c) Steve Scherf et al.
# Submitted via: Collectorz.com_Music_Collector 6.11
#
DISCID=a90ae50e
DTITLE=Corry Konings - Achter de horizon
DYEAR=1900
DGENRE=
TTITLE0=Alleen vannacht
TTITLE1=Achter de horizon
TTITLE2=Sluit nooit je ogen
TTITLE3=Treur maar niet
TTITLE4=Alles loopt op rolletjes
TTITLE5=Zo zou het altijd moeten blijven
TTITLE6=Kom dans de hele nacht
TTITLE7=Je t'aime mon amour
TTITLE8=Theater
TTITLE9=Wacht op mij
TTITLE10=De wereld is van klatergoud
TTITLE11=Ik wil nog even met je praten
TTITLE12=Blijf een beetje in de buurt
TTITLE13=Met jou
EXTD=
EXTT0=
EXTT1=
EXTT2=
EXTT3=
EXTT4=
EXTT5=
EXTT6=
EXTT7=
EXTT8=
EXTT9=
EXTT10=
EXTT11=
EXTT12=
EXTT13=
PLAYORDER=
